<?xml version="1.0" encoding="UTF-8"?>
<svg width="512" height="512" viewBox="0 0 512 512" fill="none" xmlns="http://www.w3.org/2000/svg">
  <rect width="512" height="512" rx="100" fill="url(#gradient)"/>
  <path d="M157.538 374V138.615H250.462C275.026 138.615 295.744 143.179 312.615 152.308C329.487 161.436 342.205 173.846 350.769 189.538C359.333 205.231 363.615 222.821 363.615 242.308C363.615 261.795 359.333 279.385 350.769 295.077C342.205 310.769 329.487 323.179 312.615 332.308C295.744 341.436 275.026 346 250.462 346H194.154V374H157.538ZM194.154 314.615H248.923C267.333 314.615 282.615 311.59 294.769 305.538C306.923 299.487 316 291.026 322 280.154C328 269.282 331 256.718 331 242.462C331 228.205 328 215.641 322 204.769C316 193.897 306.923 185.436 294.769 179.385C282.615 173.333 267.333 170.308 248.923 170.308H194.154V314.615Z" fill="white"/>
  <defs>
    <linearGradient id="gradient" x1="0" y1="0" x2="512" y2="512" gradientUnits="userSpaceOnUse">
      <stop offset="0%" stop-color="#4F46E5"/>
      <stop offset="100%" stop-color="#9333EA"/>
    </linearGradient>
  </defs>
</svg>